<svg xmlns="http://www.w3.org/2000/svg" width="126.221" height="36" viewBox="0 0 126.221 36">
  <g id="logo-new" transform="translate(-59.17 -35.3)">
    <path id="Path_10985" data-name="Path 10985" d="M59.17,39.369A3.956,3.956,0,0,1,63.193,35.3a4.05,4.05,0,0,1-.076,8.1A3.954,3.954,0,0,1,59.17,39.369Z" fill="#510c76"/>
    <path id="Path_10986" data-name="Path 10986" d="M66.383,86.784a14.756,14.756,0,0,0,.72,1.669v2.155a3.961,3.961,0,0,1-7.923,0V74.2a3.961,3.961,0,0,1,7.923,0v2.033q-.188.326-.359.669A12.091,12.091,0,0,0,66.383,86.784Z" transform="translate(-0.007 -25.444)" fill="#510c76"/>
    <path id="Path_10987" data-name="Path 10987" d="M110.887,79.587c-.027-.269-.054-.546-.09-.815a14.81,14.81,0,0,0-.745-2.876,11.9,11.9,0,0,0-5.914-6.909,4.949,4.949,0,0,0-.573-.261h-.008c-.008-.008-.019-.019-.027-.019a12.332,12.332,0,0,0-3.577-.924h-.008c-.386-.035-.788-.063-1.182-.063h-.008a12.991,12.991,0,0,0-1.3.063,14.892,14.892,0,0,0-2.563.484c-.44.117-.878.261-1.326.421a18.413,18.413,0,0,0-2.59,1.174c-.367.215-.726.44-1.065.671H89.9c-.351.242-.682.5-1,.761,0,.008,0,.008-.008,0-.313.277-.62.554-.905.851-.144.152-.277.3-.421.457a12.17,12.17,0,0,0-1.72,2.555,11.125,11.125,0,0,0-.807,2.1,8.125,8.125,0,0,0-.25,1.038c-.008.063-.019.125-.027.2-.027.152-.054.313-.071.476s-.027.313-.035.476a11.492,11.492,0,0,0,.082,2.473,14.835,14.835,0,0,0,.734,2.867,11.948,11.948,0,0,0,5.925,6.92H91.4c.188.09.378.179.565.261h.008c.008.019.008.019.019.019a12.459,12.459,0,0,0,3.593.924H95.6a12.726,12.726,0,0,0,2.492,0c.429-.046.862-.1,1.291-.188a16.517,16.517,0,0,0,2.672-.745c.223-.082.448-.171.663-.261.413-.171.8-.351,1.182-.538h.008c.223-.109.448-.223.663-.351.367-.215.718-.44,1.057-.671h.008a13.492,13.492,0,0,0,1.919-1.614c.144-.152.277-.3.421-.457A11.622,11.622,0,0,0,109.7,85.5a11.959,11.959,0,0,0,.772-1.954,10.37,10.37,0,0,0,.277-1.174c.035-.207.063-.413.09-.62.027-.16.035-.332.046-.492A13.236,13.236,0,0,0,110.887,79.587Zm-19.3,10.269h-.008a10.275,10.275,0,0,1-4.49-5.6c-.063-.188-.125-.367-.179-.554a11.392,11.392,0,0,1-.457-1.954c-.019-.117-.035-.223-.043-.332a9.761,9.761,0,0,1,.671-4.857.083.083,0,0,1,.035-.054.225.225,0,0,1,.16-.071.172.172,0,0,1,.071.019.082.082,0,0,1,.043.035.059.059,0,0,1,.035.043c.008-.008.008,0,.008,0a.149.149,0,0,1,.027.171v.008a9.408,9.408,0,0,0-.609,4.955,12.321,12.321,0,0,0,.62,2.4,10.217,10.217,0,0,0,3.925,5.2c.25.16.511.313.788.465h.008a.126.126,0,0,1,.071.082h.008a.036.036,0,0,1,.008.027v.008c.019.019.027.027.019.043a.159.159,0,0,1-.019.109.008.008,0,0,1-.008.008v.008a.218.218,0,0,1-.179.109.164.164,0,0,1-.09-.027.008.008,0,0,1-.008-.008A4.62,4.62,0,0,1,91.583,89.855Zm11.641-.117-.019.019a2.283,2.283,0,0,1-.313.386h-.008a3.134,3.134,0,0,1-1.245.824c-.008,0-.008,0-.019.008a3.181,3.181,0,0,1-1.837.109h-.019a3.062,3.062,0,0,1-1.307-.644l-.188-.16h-.008a3.047,3.047,0,0,1-.851-1.264L91.918,73.922a3.242,3.242,0,0,1,.511-3.137.008.008,0,0,0,.008-.008,2.313,2.313,0,0,1,.2-.234h.008a2.7,2.7,0,0,1,.772-.62h.008a3.724,3.724,0,0,1,.484-.215,3.21,3.21,0,0,1,1.614-.16,2.827,2.827,0,0,1,.476.117,2.574,2.574,0,0,1,.465.179,2.424,2.424,0,0,1,.421.25h.008a3.232,3.232,0,0,1,1.229,1.576l5.493,15.093A3.271,3.271,0,0,1,103.225,89.738Zm5.224-5.618a.2.2,0,0,1-.071.1h-.008a.146.146,0,0,1-.117.027.139.139,0,0,1-.063-.008.318.318,0,0,1-.063-.035.2.2,0,0,1-.063-.234,9.509,9.509,0,0,0,.609-4.982,12.077,12.077,0,0,0-.62-2.365,10.217,10.217,0,0,0-3.925-5.2,7.887,7.887,0,0,0-.788-.465h-.008a.008.008,0,0,0-.008-.008.213.213,0,0,1-.109-.188.034.034,0,0,1,.019-.035c-.008-.008,0-.019.008-.027-.008-.008,0-.008,0-.019v-.008c.027-.035.043-.063.082-.071a.168.168,0,0,1,.109-.035.266.266,0,0,1,.09.019,10.25,10.25,0,0,1,4.92,5.852c.063.188.125.367.179.554a11.218,11.218,0,0,1,.457,1.954c.019.117.035.223.043.332A9.7,9.7,0,0,1,108.449,84.12Z" transform="translate(-18.533 -23.609)" fill="#510c76"/>
    <g id="Group_14047" data-name="Group 14047" transform="translate(99.481 55.516)">
      <path id="Path_10988" data-name="Path 10988" d="M207.48,121.718c.033-.56.068-1.392.068-2.12V109.68h1.476v5.153h.033a3.055,3.055,0,0,1,2.8-1.508c2.036,0,3.476,1.7,3.46,4.188,0,2.933-1.848,4.392-3.68,4.392a2.923,2.923,0,0,1-2.748-1.544h-.052l-.068,1.356Zm1.544-3.289a2.7,2.7,0,0,0,.068.544,2.3,2.3,0,0,0,2.237,1.745c1.56,0,2.492-1.272,2.492-3.153,0-1.644-.848-3.052-2.441-3.052a2.38,2.38,0,0,0-2.272,1.832,3.016,3.016,0,0,0-.084.612Z" transform="translate(-207.48 -109.68)" fill="#857550"/>
      <path id="Path_10989" data-name="Path 10989" d="M240.418,123.773l1.8,4.849c.188.544.391,1.188.525,1.677h.033c.152-.492.323-1.12.525-1.712l1.628-4.816H246.5l-2.237,5.849c-1.068,2.813-1.8,4.256-2.813,5.137a4.04,4.04,0,0,1-1.832.968l-.372-1.256a3.97,3.97,0,0,0,1.3-.728,4.547,4.547,0,0,0,1.256-1.661,1.076,1.076,0,0,0,.12-.356,1.272,1.272,0,0,0-.1-.389l-3.036-7.561h1.628Z" transform="translate(-230.28 -119.94)" fill="#857550"/>
    </g>
    <g id="Group_14048" data-name="Group 14048" transform="translate(120.849 48.819)">
      <path id="Path_10990" data-name="Path 10990" d="M298.88,96.31h-8.741v8.029H286.1V85.43h4.042v6.841h8.741v-6.79h4.066v18.857h-4.066V96.31Z" transform="translate(-286.1 -85.324)" fill="#857550"/>
      <path id="Path_10991" data-name="Path 10991" d="M356.865,100.945v3.512H352.85V85.52h13.759v3.487h-9.747v4.254h8.611v3.672h-8.611v4.012Z" transform="translate(-334.707 -85.39)" fill="#857550"/>
      <path id="Path_10992" data-name="Path 10992" d="M413.222,104.161a9.561,9.561,0,1,1,8.293-14.234c-1.612.845-1.742.924-3.539,1.8A5.493,5.493,0,0,0,413.222,89a5.6,5.6,0,0,0,0,11.2,5.5,5.5,0,0,0,4.911-2.933c1.8.924,1.848,1.03,3.539,1.8A9.482,9.482,0,0,1,413.222,104.161Z" transform="translate(-371.707 -85.04)" fill="#857550"/>
      <path id="Path_10993" data-name="Path 10993" d="M473.04,104.326V85.52h4.066v15.319h9.665v3.487Z" transform="translate(-422.23 -85.39)" fill="#857550"/>
    </g>
  </g>
</svg>
