<svg width="132" height="36" viewBox="0 0 132 36" fill="none" xmlns="http://www.w3.org/2000/svg">
<path d="M8.28787e-06 4.15221C-0.00442929 1.79612 1.77365 -0.0172005 4.10338 0.000272751C6.28583 0.0180235 8.13658 1.88404 8.0861 4.23348C8.03978 6.4423 6.25948 8.28418 4.02433 8.26449C1.88792 8.26893 0.00444586 6.55879 8.28787e-06 4.15221Z" fill="#510C76"/>
<path d="M7.35195 26.5699C7.56967 27.1678 7.81568 27.737 8.08609 28.2734V30.4733C8.08609 32.6977 6.26835 34.5151 4.04402 34.5151C1.81996 34.5151 0 32.6977 0 30.4733V13.7296C0 11.5078 1.81996 9.68781 4.04402 9.68781C5.15618 9.68781 6.1674 10.1429 6.89904 10.8746C7.63096 11.6087 8.08609 12.6177 8.08609 13.7296V15.8045C7.95851 16.0267 7.83537 16.253 7.7211 16.486C6.1674 19.6114 6.04425 22.9718 7.35195 26.5699Z" fill="#510C76"/>
<path d="M41.4639 32.4616V19.8804H42.9137V24.5246H43.0365C43.143 24.3608 43.2904 24.1519 43.4788 23.898C43.6713 23.64 43.9457 23.4107 44.302 23.21C44.6624 23.0052 45.1498 22.9028 45.7641 22.9028C46.5586 22.9028 47.2589 23.1015 47.865 23.4987C48.4712 23.896 48.9442 24.4591 49.2841 25.1881C49.624 25.9171 49.794 26.7771 49.794 27.7682C49.794 28.7675 49.624 29.6337 49.2841 30.3668C48.9442 31.0958 48.4732 31.661 47.8712 32.0623C47.2691 32.4596 46.575 32.6582 45.7886 32.6582C45.1825 32.6582 44.6972 32.5579 44.3327 32.3572C43.9682 32.1524 43.6877 31.921 43.4911 31.663C43.2945 31.4009 43.143 31.1839 43.0365 31.0118H42.8645V32.4616H41.4639ZM42.8891 27.7437C42.8891 28.4563 42.9935 29.0849 43.2024 29.6296C43.4112 30.1702 43.7164 30.5941 44.1177 30.9013C44.5191 31.2043 45.0105 31.3559 45.5921 31.3559C46.1982 31.3559 46.704 31.1961 47.1094 30.8767C47.519 30.5532 47.8261 30.119 48.0309 29.5743C48.2398 29.0255 48.3442 28.4153 48.3442 27.7437C48.3442 27.0802 48.2418 26.4823 48.037 25.9499C47.8364 25.4133 47.5312 24.9895 47.1217 24.6782C46.7163 24.3629 46.2064 24.2052 45.5921 24.2052C45.0023 24.2052 44.5068 24.3547 44.1054 24.6536C43.7041 24.9485 43.401 25.3622 43.1962 25.8946C42.9915 26.4229 42.8891 27.0392 42.8891 27.7437Z" fill="#84754D"/>
<path d="M52.6075 36.0001C52.3618 36.0001 52.1427 35.9797 51.9502 35.9387C51.7577 35.9018 51.6246 35.865 51.5509 35.8281L51.9195 34.5503C52.2717 34.6404 52.583 34.6732 52.8533 34.6486C53.1236 34.6241 53.3631 34.5032 53.572 34.2862C53.785 34.0732 53.9795 33.7271 54.1556 33.248L54.4259 32.5108L50.9366 23.0257H52.5092L55.1139 30.545H55.2122L57.8169 23.0257H59.3896L55.3842 33.8377C55.204 34.3251 54.9808 34.7285 54.7146 35.0479C54.4484 35.3715 54.1392 35.6111 53.787 35.7667C53.4389 35.9223 53.0457 36.0001 52.6075 36.0001Z" fill="#84754D"/>
<path d="M63.1572 32.5108V12.911H67.3011V20.9978H75.7132V12.911H79.8475V32.5108H75.7132V24.4144H67.3011V32.5108H63.1572Z" fill="#84754D"/>
<path d="M83.264 32.5108V12.911H96.2411V16.3276H87.4079V20.9978H95.3798V24.4144H87.4079V32.5108H83.264Z" fill="#84754D"/>
<path d="M116.322 19.7729H112.13C112.053 19.2305 111.897 18.7489 111.661 18.3278C111.425 17.9003 111.122 17.5366 110.752 17.2368C110.382 16.9369 109.954 16.7072 109.469 16.5477C108.991 16.3882 108.471 16.3085 107.909 16.3085C106.895 16.3085 106.011 16.5605 105.259 17.0645C104.506 17.5621 103.922 18.2895 103.507 19.2465C103.093 20.1971 102.885 21.3519 102.885 22.7109C102.885 24.1082 103.093 25.2821 103.507 26.2327C103.928 27.1834 104.515 27.9011 105.268 28.386C106.021 28.8709 106.892 29.1134 107.881 29.1134C108.436 29.1134 108.949 29.04 109.422 28.8933C109.9 28.7465 110.324 28.5328 110.694 28.2521C111.064 27.9649 111.371 27.6172 111.613 27.2089C111.862 26.8006 112.034 26.3348 112.13 25.8117L116.322 25.8308C116.213 26.7304 115.942 27.5981 115.508 28.4339C115.081 29.2633 114.503 30.0066 113.776 30.6637C113.055 31.3145 112.194 31.8313 111.192 32.2141C110.197 32.5905 109.071 32.7788 107.814 32.7788C106.066 32.7788 104.503 32.3832 103.124 31.5921C101.753 30.8009 100.668 29.6557 99.8706 28.1564C99.0794 26.657 98.6839 24.8419 98.6839 22.7109C98.6839 20.5736 99.0858 18.7552 99.8897 17.2559C100.694 15.7566 101.785 14.6145 103.163 13.8298C104.541 13.0386 106.091 12.6431 107.814 12.6431C108.949 12.6431 110.002 12.8026 110.972 13.1216C111.948 13.4406 112.813 13.9063 113.565 14.5188C114.318 15.1249 114.931 15.8682 115.403 16.7487C115.881 17.6291 116.188 18.6372 116.322 19.7729Z" fill="#84754D"/>
<path d="M119.293 32.5108V12.911H123.437V29.0942H131.84V32.5108H119.293Z" fill="#84754D"/>
<path d="M31.3725 25.7242C31.3542 25.7699 31.3359 25.7974 31.2993 25.8248H31.2901C31.2535 25.8523 31.208 25.8615 31.1714 25.8523C31.144 25.8523 31.1257 25.8523 31.1074 25.8431C31.0799 25.834 31.0616 25.8157 31.0433 25.8065C30.9701 25.7516 30.9426 25.6601 30.9792 25.5688C31.6376 23.9591 31.8482 22.2581 31.601 20.4842C31.4823 19.6976 31.2718 18.8927 30.9701 18.0698C30.1289 15.7562 28.7846 13.9728 26.9646 12.7655C26.7086 12.5919 26.4343 12.4363 26.1597 12.2901H26.1506C26.1506 12.281 26.1417 12.281 26.1417 12.281C26.0685 12.2444 26.0319 12.162 26.0319 12.0888C26.0319 12.0796 26.0319 12.0616 26.0502 12.0524C26.041 12.0433 26.0502 12.0341 26.0593 12.025C26.0502 12.0158 26.0593 12.0158 26.0593 12.0067V11.9975C26.0868 11.9609 26.1051 11.9335 26.1417 11.9243C26.178 11.8968 26.2147 11.8877 26.2513 11.8877C26.2787 11.8877 26.3153 11.8968 26.3428 11.906C28.6747 13.1222 30.3666 15.1249 31.3633 17.8776C31.4274 18.0698 31.4915 18.2526 31.5461 18.4448C31.7658 19.1124 31.9211 19.78 32.0126 20.4384C32.0309 20.5571 32.0492 20.667 32.0584 20.7768C32.2503 22.4961 32.0218 24.1513 31.3725 25.7242ZM26.041 31.4581C26.0319 31.4673 26.0227 31.4764 26.0227 31.4764C25.9312 31.6229 25.8214 31.7507 25.7027 31.8697H25.6935C25.346 32.2447 24.9253 32.5281 24.4224 32.7109C24.4133 32.7109 24.4133 32.7109 24.4041 32.7201C23.782 32.9489 23.1328 32.9763 22.5292 32.8299H22.5109C22.0173 32.7201 21.5691 32.5007 21.1758 32.1715L20.9839 32.007H20.9747C20.5906 31.6683 20.2888 31.2296 20.1058 30.7173L14.5 15.3171C14.0884 14.2013 14.3261 12.9852 15.0211 12.1162C15.0211 12.1162 15.0303 12.1162 15.0303 12.1071C15.0944 12.025 15.1584 11.9426 15.2317 11.8694H15.2408C15.4693 11.6042 15.7253 11.4029 16.0271 11.2384H16.0362C16.1918 11.156 16.3563 11.0828 16.5302 11.019C17.0788 10.8177 17.6368 10.7719 18.1763 10.8543C18.341 10.8817 18.5055 10.9183 18.6611 10.9733C18.8255 11.019 18.9903 11.0828 19.1364 11.156C19.292 11.2293 19.429 11.3116 19.5663 11.412H19.5755C20.1332 11.787 20.5814 12.345 20.8283 13.0218L26.4343 28.422C26.8184 29.4737 26.6354 30.5986 26.041 31.4581ZM14.1616 31.5771H14.1525C12.0491 30.3606 10.5037 28.4311 9.5707 25.8615C9.50691 25.6692 9.44284 25.4865 9.38793 25.2943C9.16854 24.6175 9.01295 23.9591 8.92143 23.3007C8.90312 23.182 8.88482 23.0721 8.87594 22.9623C8.68374 21.243 8.91227 19.5878 9.56182 18.0058C9.5707 17.9783 9.57985 17.96 9.59816 17.9509C9.64392 17.9051 9.69883 17.8776 9.7629 17.8776C9.79036 17.8776 9.80866 17.8868 9.83612 17.8959C9.85443 17.9051 9.87273 17.9142 9.88188 17.9325C9.90019 17.9417 9.90934 17.9509 9.91822 17.9783C9.92737 17.9692 9.92737 17.9783 9.92737 17.9783C9.97313 18.0149 9.98228 18.0881 9.95483 18.1522V18.1614C9.2964 19.7617 9.08617 21.4535 9.33301 23.2183C9.452 24.0232 9.66222 24.8372 9.96398 25.6692C10.8055 27.9829 12.1498 29.7663 13.9694 30.9736C14.2257 31.138 14.4909 31.2936 14.7743 31.449H14.7835C14.8201 31.4673 14.8384 31.4856 14.8567 31.5313H14.8658C14.875 31.5405 14.875 31.5496 14.875 31.5588V31.5679C14.8933 31.5862 14.9024 31.5954 14.8933 31.6137C14.9024 31.6503 14.8933 31.6866 14.875 31.7233C14.875 31.7233 14.875 31.7324 14.8658 31.7324V31.7416C14.8292 31.8056 14.756 31.8514 14.6828 31.8514C14.6553 31.8514 14.619 31.8422 14.5915 31.8239C14.5915 31.8239 14.5824 31.8239 14.5824 31.8148C14.4359 31.7416 14.2989 31.6595 14.1616 31.5771ZM33.86 21.0968C33.8326 20.8225 33.8051 20.5388 33.7685 20.2645C33.6221 19.3043 33.3752 18.3258 33.0094 17.329C31.8115 14.0369 29.7997 11.6958 26.9738 10.2782C26.7818 10.1775 26.5896 10.086 26.3885 10.0128H26.3794C26.3702 10.0039 26.3611 9.99477 26.3519 9.99477C25.1721 9.49166 23.9559 9.18075 22.7031 9.05261H22.694C22.3007 9.01628 21.8891 8.98882 21.4867 8.98882H21.4775C21.0388 8.98882 20.5906 9.00712 20.1515 9.05261C19.292 9.13498 18.4231 9.29973 17.5361 9.54657C17.0879 9.66555 16.64 9.81172 16.1827 9.97647C15.2317 10.324 14.3536 10.7261 13.5398 11.1743C13.1649 11.3937 12.799 11.6225 12.4515 11.8602H12.4424C12.0857 12.1071 11.7473 12.3725 11.4181 12.6376C11.4181 12.6468 11.4181 12.6468 11.409 12.6376C11.0889 12.9211 10.778 13.2045 10.4854 13.5063C10.339 13.6619 10.2019 13.8172 10.0555 13.9728C9.36962 14.7591 8.77526 15.628 8.29961 16.5791C7.95209 17.2833 7.66865 17.9875 7.47672 18.7191C7.36689 19.0666 7.28452 19.4233 7.22073 19.78C7.21157 19.8438 7.20242 19.9078 7.19327 19.9811C7.16581 20.1367 7.13835 20.3011 7.12005 20.4659C7.10174 20.6212 7.09259 20.7859 7.08344 20.9504C7.01937 21.7736 7.04683 22.6148 7.16581 23.4746C7.30282 24.4256 7.55909 25.4041 7.91549 26.4009C9.12278 29.7022 11.1347 32.0433 13.9606 33.4609H13.9694C14.1616 33.5524 14.3536 33.6439 14.5458 33.726H14.5549C14.5641 33.7443 14.5641 33.7443 14.5732 33.7443C15.7619 34.2474 16.9784 34.5583 18.2403 34.6865H18.2495C19.0815 34.7686 19.923 34.7686 20.7917 34.6865C21.2307 34.6407 21.6697 34.5858 22.1085 34.4943C22.9957 34.3298 23.9102 34.0735 24.8337 33.7352C25.0625 33.6531 25.2911 33.5615 25.5105 33.47C25.9312 33.2964 26.3245 33.1133 26.7178 32.9214H26.7269C26.9555 32.8116 27.184 32.6929 27.4036 32.5647C27.7786 32.3454 28.1353 32.1165 28.4828 31.8789H28.4917C29.2142 31.3757 29.8546 30.8363 30.4489 30.2328C30.5951 30.0772 30.7324 29.9219 30.8788 29.7663C31.5827 28.9708 32.1682 28.0927 32.6436 27.1326C32.9728 26.4741 33.2291 25.8157 33.4301 25.139C33.5491 24.7457 33.6404 24.3432 33.7136 23.9408C33.7502 23.7306 33.7777 23.5203 33.8051 23.3098C33.8326 23.1454 33.8417 22.9715 33.8509 22.807C33.8966 22.249 33.8966 21.6729 33.86 21.0968Z" fill="#510C76"/>
</svg>
